<?xml version="1.0" standalone="no"?>
<!DOCTYPE svg PUBLIC "-//W3C//DTD SVG 20010904//EN"
 "http://www.w3.org/TR/2001/REC-SVG-20010904/DTD/svg10.dtd">
<svg version="1.0" xmlns="http://www.w3.org/2000/svg"
 width="419.000000pt" height="367.000000pt" viewBox="0 0 419.000000 367.000000"
 preserveAspectRatio="xMidYMid meet">

<g transform="translate(0.000000,367.000000) scale(0.100000,-0.100000)"
fill="#257ecc" stroke="none">
<path d="M2185 3660 c-699 -71 -1289 -520 -1541 -1172 -34 -87 -76 -236 -89
-315 l-7 -43 226 0 225 0 11 43 c62 246 185 463 365 642 159 159 328 263 544
335 686 228 1431 -111 1714 -780 33 -77 87 -262 87 -296 0 -12 -137 -14 -894
-14 l-894 0 -23 -52 c-20 -46 -24 -69 -24 -168 0 -97 4 -124 23 -173 l24 -57
1041 2 c995 3 1044 4 1077 22 49 26 88 64 111 108 35 69 20 338 -31 537 -162
635 -645 1136 -1268 1315 -202 58 -482 85 -677 66z"/>
<path d="M2149 2811 c-388 -85 -690 -390 -771 -780 -26 -126 -21 -326 12 -446
96 -352 372 -624 728 -716 221 -57 501 -22 701 87 l64 35 139 -138 c76 -76
138 -140 138 -143 0 -8 -124 -82 -195 -118 -88 -44 -222 -89 -338 -114 -146
-31 -400 -31 -543 0 -538 116 -943 500 -1074 1020 l-11 42 -224 0 c-186 0
-225 -2 -225 -14 0 -32 60 -248 95 -341 193 -516 633 -930 1162 -1095 168 -52
282 -70 476 -77 213 -7 339 5 522 52 188 48 346 115 513 217 159 97 337 252
371 321 27 56 28 137 1 191 -12 27 -135 156 -347 367 -276 274 -335 327 -369
337 -92 26 -167 6 -246 -66 -62 -57 -117 -89 -205 -118 -69 -23 -89 -26 -188
-22 -125 5 -196 26 -283 84 -125 83 -208 207 -239 359 -76 373 269 718 642
642 123 -26 197 -67 293 -164 l83 -83 234 0 c160 0 235 3 235 11 0 29 -70 172
-121 249 -63 95 -182 214 -272 273 -82 54 -208 112 -302 137 -115 32 -337 37
-456 11z"/>
<path d="M159 2046 c-112 -40 -172 -145 -147 -260 15 -72 93 -150 166 -165 35
-7 235 -11 591 -11 l539 0 -10 43 c-13 54 -15 241 -5 335 l8 72 -553 0 c-426
-1 -561 -4 -589 -14z"/>
</g>
</svg>
